<svg width="512" height="512" viewBox="0 0 512 512" fill="none" xmlns="http://www.w3.org/2000/svg">
<g clip-path="url(#clip0_115_117)">
<path d="M401.344 213.333C407.936 213.333 414.165 210.283 418.197 205.077C422.229 199.872 423.637 193.088 422.016 186.709C415.381 160.747 401.856 137.024 382.912 118.08L308.565 43.7333C280.363 15.5307 242.859 0 202.965 0H106.645C47.8507 0 0 47.8507 0 106.667V405.333C0 464.149 47.8507 512 106.667 512H170.667C182.443 512 192 502.443 192 490.667C192 478.891 182.443 469.333 170.667 469.333H106.667C71.3813 469.333 42.6667 440.619 42.6667 405.333V106.667C42.6667 71.3813 71.3813 42.6667 106.667 42.6667H202.987C206.464 42.6667 209.92 42.8373 213.333 43.1573V149.333C213.333 184.619 242.048 213.333 277.333 213.333H401.344ZM256 149.333V56.7253C264.085 61.376 271.616 67.136 278.4 73.92L352.747 148.267C359.445 154.965 365.184 162.517 369.877 170.667H277.333C265.579 170.667 256 161.088 256 149.333ZM493.269 253.419C469.077 229.227 426.923 229.227 402.752 253.419L259.669 396.501C243.563 412.608 234.667 434.048 234.667 456.853V490.688C234.667 502.464 244.224 512.021 256 512.021H289.835C312.64 512.021 334.059 503.125 350.165 487.019L493.248 343.936C505.344 331.84 512 315.776 512 298.667C512 281.557 505.344 265.493 493.269 253.419ZM463.083 313.749L319.979 456.832C311.936 464.896 301.227 469.333 289.813 469.333H277.312V456.832C277.312 445.44 281.749 434.731 289.813 426.667L432.917 283.584C440.96 275.52 455.019 275.52 463.083 283.584C467.115 287.595 469.333 292.949 469.333 298.667C469.333 304.384 467.115 309.717 463.083 313.749Z" fill="white"/>
</g>
<defs>
<clipPath id="clip0_115_117">
<rect width="512" height="512" fill="white"/>
</clipPath>
</defs>
</svg>
