<svg width="512" height="512" viewBox="0 0 512 512" fill="none" xmlns="http://www.w3.org/2000/svg">
<path d="M490.667 96C490.667 78.327 476.34 64 458.667 64H378.112C364.632 25.757 328.549 0.13 288 0H224C183.451 0.13 147.368 25.757 133.888 64H53.333C35.66 64 21.333 78.327 21.333 96C21.333 113.673 35.66 128 53.333 128H64V394.667C64 459.468 116.532 512 181.333 512H330.666C395.468 512 448 459.468 448 394.667V128H458.667C476.34 128 490.667 113.673 490.667 96ZM384 394.667C384 424.122 360.122 448 330.667 448H181.333C151.878 448 128 424.122 128 394.667V128H384V394.667Z" fill="white"/>
<path d="M202.667 384C220.34 384 234.667 369.673 234.667 352V224C234.667 206.327 220.34 192 202.667 192C184.994 192 170.667 206.327 170.667 224V352C170.667 369.673 184.994 384 202.667 384Z" fill="white"/>
<path d="M309.333 384C327.006 384 341.333 369.673 341.333 352V224C341.333 206.327 327.006 192 309.333 192C291.66 192 277.333 206.327 277.333 224V352C277.333 369.673 291.66 384 309.333 384Z" fill="white"/>
</svg>
